<svg width="168" height="46" viewBox="0 0 168 36" fill="none" xmlns="http://www.w3.org/2000/svg">
<path d="M23.66 8.812C23.468 9.388 23.216 10.144 22.904 11.08C22.616 11.992 22.292 13 21.932 14.104C21.572 15.208 21.2 16.384 20.816 17.632C20.432 18.856 20.036 20.056 19.628 21.232C19.244 22.408 18.86 23.536 18.476 24.616C18.092 25.672 17.744 26.596 17.432 27.388C17.336 27.58 17.132 27.736 16.82 27.856C16.532 27.952 16.064 28 15.416 28C15.008 28 14.588 27.976 14.156 27.928C13.724 27.88 13.316 27.784 12.932 27.64C12.572 27.496 12.248 27.304 11.96 27.064C11.696 26.824 11.492 26.524 11.348 26.164C10.988 24.94 10.64 23.584 10.304 22.096C9.992 20.584 9.68 19.048 9.368 17.488C9.056 15.928 8.744 14.404 8.432 12.916C8.144 11.404 7.844 10.036 7.532 8.812C7.532 9.148 7.52 9.724 7.496 10.54C7.472 11.356 7.448 12.304 7.424 13.384C7.4 14.464 7.364 15.628 7.316 16.876C7.292 18.124 7.268 19.348 7.244 20.548C7.22 21.724 7.196 22.828 7.172 23.86C7.148 24.868 7.136 25.696 7.136 26.344C7.136 27.064 7.088 27.52 6.992 27.712C6.92 27.904 6.776 28 6.56 28H4.58C3.212 28 2.24 27.736 1.664 27.208C1.112 26.656 0.836 25.852 0.836 24.796C0.836 24.508 0.848 24.028 0.872 23.356C0.92 22.66 0.98 21.844 1.052 20.908C1.124 19.972 1.196 18.952 1.268 17.848C1.364 16.72 1.46 15.58 1.556 14.428C1.676 12.868 1.772 11.572 1.844 10.54C1.94 9.484 2.012 8.608 2.06 7.912C2.108 7.216 2.144 6.652 2.168 6.22C2.216 5.788 2.24 5.404 2.24 5.068C2.264 4.732 2.276 4.42 2.276 4.132C2.3 3.82 2.312 3.436 2.312 2.98C2.312 2.788 2.384 2.656 2.528 2.584C2.672 2.488 2.804 2.44 2.924 2.44H7.964C8.9 2.44 9.668 2.596 10.268 2.908C10.868 3.196 11.36 3.652 11.744 4.276C12.128 4.9 12.44 5.716 12.68 6.724C12.92 7.708 13.136 8.884 13.328 10.252C13.544 11.62 13.772 13.204 14.012 15.004C14.276 16.78 14.612 18.784 15.02 21.016C15.404 19.528 15.728 18.292 15.992 17.308C16.256 16.324 16.472 15.508 16.64 14.86C16.832 14.188 16.988 13.636 17.108 13.204C17.228 12.772 17.336 12.376 17.432 12.016C17.528 11.632 17.636 11.224 17.756 10.792C17.876 10.36 18.02 9.82 18.188 9.172C18.356 8.524 18.56 7.72 18.8 6.76C19.064 5.776 19.388 4.54 19.772 3.052C19.82 2.908 19.904 2.776 20.024 2.656C20.144 2.512 20.36 2.44 20.672 2.44H26.288C27.056 2.44 27.668 2.524 28.124 2.692C28.604 2.836 28.976 3.052 29.24 3.34C29.504 3.628 29.684 3.988 29.78 4.42C29.876 4.828 29.924 5.308 29.924 5.86C29.924 6.412 29.888 7.312 29.816 8.56C29.768 9.784 29.684 11.176 29.564 12.736C29.468 14.272 29.36 15.868 29.24 17.524C29.144 19.18 29.036 20.716 28.916 22.132C28.82 23.548 28.736 24.748 28.664 25.732C28.592 26.716 28.544 27.292 28.52 27.46C28.496 27.652 28.448 27.796 28.376 27.892C28.304 27.964 28.16 28 27.944 28H25.964C24.596 28 23.624 27.736 23.048 27.208C22.496 26.656 22.22 25.948 22.22 25.084C22.22 24.82 22.244 24.34 22.292 23.644C22.364 22.948 22.448 22.132 22.544 21.196C22.64 20.26 22.748 19.24 22.868 18.136C22.988 17.008 23.096 15.892 23.192 14.788C23.288 13.684 23.372 12.616 23.444 11.584C23.54 10.528 23.612 9.604 23.66 8.812ZM40.0473 11.512C40.0473 12.064 40.0113 12.724 39.9393 13.492C39.8673 14.236 39.7833 14.992 39.6873 15.76C39.6153 16.504 39.5433 17.212 39.4713 17.884C39.3993 18.532 39.3633 19.036 39.3633 19.396C39.3633 20.308 39.5793 20.992 40.0113 21.448C40.4673 21.88 41.0193 22.096 41.6673 22.096C42.7953 22.096 43.6953 21.508 44.3673 20.332C45.0393 19.156 45.4593 17.596 45.6273 15.652L46.2033 8.92C46.2273 8.656 46.3113 8.476 46.4553 8.38C46.6233 8.26 46.8033 8.2 46.9953 8.2H48.2913C48.7953 8.2 49.2633 8.248 49.6953 8.344C50.1513 8.416 50.5473 8.572 50.8833 8.812C51.2193 9.028 51.4833 9.328 51.6753 9.712C51.8673 10.096 51.9633 10.588 51.9633 11.188C51.9633 11.428 51.9393 11.884 51.8913 12.556C51.8673 13.204 51.8073 14.152 51.7113 15.4C51.6393 16.624 51.5313 18.184 51.3873 20.08C51.2433 21.952 51.0753 24.244 50.8833 26.956C50.7633 28.54 50.4033 29.848 49.8033 30.88C49.2273 31.936 48.4953 32.764 47.6073 33.364C46.7193 33.988 45.7233 34.42 44.6193 34.66C43.5153 34.9 42.3873 35.02 41.2353 35.02C40.0113 35.02 38.8833 34.912 37.8513 34.696C36.8433 34.48 35.9673 34.18 35.2233 33.796C34.4793 33.412 33.8913 32.968 33.4593 32.464C33.0513 31.96 32.8473 31.42 32.8473 30.844C32.8473 30.388 32.9433 29.992 33.1353 29.656C33.3513 29.32 33.6273 29.044 33.9633 28.828C34.2993 28.612 34.6833 28.444 35.1153 28.324C35.5713 28.228 36.0393 28.18 36.5193 28.18C36.7593 28.18 36.9273 28.3 37.0233 28.54C37.1433 28.78 37.3113 29.044 37.5273 29.332C37.7673 29.644 38.1393 29.92 38.6433 30.16C39.1473 30.4 39.9033 30.52 40.9113 30.52C41.7993 30.52 42.5193 30.304 43.0713 29.872C43.6233 29.44 44.0433 28.888 44.3313 28.216C44.6433 27.544 44.8473 26.812 44.9433 26.02C45.0393 25.228 45.0873 24.472 45.0873 23.752C44.7033 24.424 44.2713 24.976 43.7913 25.408C43.3353 25.816 42.8553 26.14 42.3513 26.38C41.8473 26.596 41.3433 26.74 40.8393 26.812C40.3353 26.884 39.8553 26.92 39.3993 26.92C38.5113 26.92 37.6953 26.8 36.9513 26.56C36.2313 26.32 35.6073 25.936 35.0793 25.408C34.5513 24.856 34.1433 24.148 33.8553 23.284C33.5673 22.42 33.4233 21.376 33.4233 20.152C33.4233 19.696 33.4473 19.096 33.4953 18.352C33.5433 17.584 33.6033 16.732 33.6753 15.796C33.7473 14.836 33.8193 13.804 33.8913 12.7C33.9873 11.596 34.0833 10.468 34.1793 9.316C34.2273 8.572 34.5633 8.2 35.1873 8.2H36.3393C37.1073 8.2 37.7313 8.272 38.2113 8.416C38.6913 8.56 39.0633 8.776 39.3273 9.064C39.6153 9.328 39.8073 9.676 39.9033 10.108C39.9993 10.516 40.0473 10.984 40.0473 11.512ZM63.8411 22.636C64.3451 20.956 64.7771 19.48 65.1371 18.208C65.4971 16.936 65.8571 15.628 66.2171 14.284C66.5771 12.94 66.9611 11.428 67.3691 9.748C67.7771 8.068 68.2931 5.98 68.9171 3.484C69.0371 3.028 69.1691 2.74 69.3131 2.62C69.4811 2.476 69.8411 2.404 70.3931 2.404C70.6331 2.404 71.0051 2.428 71.5091 2.476C72.0371 2.5 72.5651 2.608 73.0931 2.8C73.6211 2.968 74.0891 3.232 74.4971 3.592C74.9051 3.928 75.1091 4.42 75.1091 5.068C75.1091 5.644 74.9411 6.532 74.6051 7.732C74.2931 8.908 73.8851 10.252 73.3811 11.764C72.8771 13.276 72.3131 14.86 71.6891 16.516C71.0891 18.148 70.4891 19.696 69.8891 21.16C69.2891 22.624 68.7371 23.908 68.2331 25.012C67.7531 26.116 67.3931 26.884 67.1531 27.316C66.8891 27.772 66.4211 28 65.7491 28H61.9691C61.3691 28 60.8651 27.892 60.4571 27.676C60.0731 27.436 59.7491 27.124 59.4851 26.74C59.2211 26.356 59.0051 25.924 58.8371 25.444C58.6691 24.94 58.5251 24.436 58.4051 23.932C57.5891 20.524 56.8811 17.572 56.2811 15.076C55.7051 12.556 55.2251 10.456 54.8411 8.776C54.4571 7.072 54.1691 5.764 53.9771 4.852C53.7851 3.94 53.6891 3.376 53.6891 3.16C53.6891 2.896 53.8811 2.704 54.2651 2.584C54.6491 2.44 55.2971 2.368 56.2091 2.368C57.1691 2.368 57.9491 2.464 58.5491 2.656C59.1731 2.848 59.6651 3.124 60.0251 3.484C60.4091 3.82 60.6851 4.228 60.8531 4.708C61.0451 5.164 61.1771 5.668 61.2491 6.22C61.3211 6.628 61.3931 7.12 61.4651 7.696C61.5371 8.248 61.6571 9.1 61.8251 10.252C62.0171 11.404 62.2691 12.964 62.5811 14.932C62.8931 16.876 63.3131 19.444 63.8411 22.636ZM80.4028 28C79.6588 28 79.0468 27.928 78.5668 27.784C78.1108 27.616 77.7388 27.388 77.4508 27.1C77.1868 26.812 76.9948 26.464 76.8748 26.056C76.7788 25.624 76.7308 25.132 76.7308 24.58C76.7308 24.22 76.7428 23.716 76.7668 23.068C76.8148 22.396 76.8868 21.484 76.9828 20.332C77.0788 19.156 77.1868 17.68 77.3068 15.904C77.4508 14.104 77.6188 11.884 77.8108 9.244C77.8348 8.716 77.8948 8.404 77.9908 8.308C78.0628 8.236 78.2548 8.2 78.5668 8.2H79.9707C80.7148 8.2 81.3148 8.272 81.7708 8.416C82.2508 8.56 82.6228 8.776 82.8868 9.064C83.1748 9.352 83.3668 9.7 83.4628 10.108C83.5828 10.516 83.6428 10.972 83.6428 11.476C83.6428 11.836 83.6188 12.376 83.5708 13.096C83.5228 13.816 83.4508 14.8 83.3548 16.048C83.2828 17.272 83.1748 18.808 83.0308 20.656C82.8868 22.48 82.7068 24.688 82.4908 27.28C82.4668 27.568 82.4068 27.76 82.3108 27.856C82.2148 27.952 82.0108 28 81.6988 28H80.4028ZM77.8468 3.952C77.8468 2.992 78.1948 2.236 78.8908 1.684C79.5868 1.132 80.5228 0.856 81.6988 0.856C82.7308 0.856 83.4748 1.072 83.9308 1.504C84.4108 1.912 84.6508 2.464 84.6508 3.16C84.6508 4.048 84.3148 4.792 83.6428 5.392C82.9948 5.968 82.0348 6.256 80.7628 6.256C78.8188 6.256 77.8468 5.488 77.8468 3.952ZM90.9958 28.324C89.5078 28.324 88.4398 27.928 87.7918 27.136C87.1438 26.344 86.8198 25.036 86.8198 23.212C86.8198 22.924 86.8318 22.564 86.8558 22.132C86.9038 21.7 86.9518 21.148 86.9998 20.476C87.0718 19.78 87.1558 18.928 87.2518 17.92C87.3478 16.912 87.4438 15.688 87.5398 14.248C87.6598 12.808 87.7798 11.116 87.8998 9.172C88.0438 7.228 88.1878 4.972 88.3318 2.404C88.3558 1.876 88.4158 1.564 88.5118 1.468C88.5838 1.396 88.7758 1.36 89.0878 1.36H90.4918C91.2118 1.36 91.8118 1.444 92.2918 1.612C92.7718 1.78 93.1558 2.008 93.4438 2.296C93.7318 2.584 93.9358 2.92 94.0558 3.304C94.1758 3.664 94.2358 4.048 94.2358 4.456C94.2358 4.936 94.1998 5.632 94.1278 6.544C94.0798 7.432 94.0078 8.44 93.9118 9.568C93.8158 10.696 93.7198 11.872 93.6238 13.096C93.5278 14.32 93.4318 15.496 93.3358 16.624C93.2398 17.728 93.1558 18.724 93.0838 19.612C93.0358 20.5 93.0118 21.172 93.0118 21.628C93.0118 22.252 93.1198 22.696 93.3358 22.96C93.5758 23.224 93.8278 23.416 94.0918 23.536C94.3558 23.632 94.5958 23.704 94.8118 23.752C95.0518 23.776 95.1718 23.848 95.1718 23.968C95.1718 24.496 95.1118 25.024 94.9918 25.552C94.8718 26.056 94.6558 26.524 94.3438 26.956C94.0318 27.364 93.5998 27.7 93.0478 27.964C92.5198 28.204 91.8358 28.324 90.9958 28.324ZM101.859 28.324C100.371 28.324 99.303 27.928 98.655 27.136C98.007 26.344 97.683 25.036 97.683 23.212C97.683 22.924 97.695 22.564 97.719 22.132C97.767 21.7 97.815 21.148 97.863 20.476C97.935 19.78 98.019 18.928 98.115 17.92C98.211 16.912 98.307 15.688 98.403 14.248C98.523 12.808 98.643 11.116 98.763 9.172C98.907 7.228 99.051 4.972 99.195 2.404C99.219 1.876 99.279 1.564 99.375 1.468C99.447 1.396 99.639 1.36 99.951 1.36H101.355C102.075 1.36 102.675 1.444 103.155 1.612C103.635 1.78 104.019 2.008 104.307 2.296C104.595 2.584 104.799 2.92 104.919 3.304C105.039 3.664 105.099 4.048 105.099 4.456C105.099 4.936 105.063 5.632 104.991 6.544C104.943 7.432 104.871 8.44 104.775 9.568C104.679 10.696 104.583 11.872 104.487 13.096C104.391 14.32 104.295 15.496 104.199 16.624C104.103 17.728 104.019 18.724 103.947 19.612C103.899 20.5 103.875 21.172 103.875 21.628C103.875 22.252 103.983 22.696 104.199 22.96C104.439 23.224 104.691 23.416 104.955 23.536C105.219 23.632 105.459 23.704 105.675 23.752C105.915 23.776 106.035 23.848 106.035 23.968C106.035 24.496 105.975 25.024 105.855 25.552C105.735 26.056 105.519 26.524 105.207 26.956C104.895 27.364 104.463 27.7 103.911 27.964C103.383 28.204 102.699 28.324 101.859 28.324ZM107.466 23.572C107.466 21.412 108.438 19.72 110.382 18.496C112.326 17.272 115.194 16.612 118.986 16.516C119.01 16.252 119.022 16.036 119.022 15.868C119.046 15.676 119.058 15.448 119.058 15.184C119.058 14.416 118.914 13.804 118.626 13.348C118.338 12.892 117.738 12.664 116.826 12.664C116.322 12.664 115.914 12.736 115.602 12.88C115.29 13.024 115.038 13.228 114.846 13.492C114.654 13.732 114.498 14.032 114.378 14.392C114.258 14.752 114.15 15.148 114.054 15.58C114.006 15.796 113.898 15.94 113.73 16.012C113.562 16.06 113.298 16.084 112.938 16.084C110.49 16.084 109.266 15.16 109.266 13.312C109.266 12.568 109.434 11.86 109.77 11.188C110.13 10.516 110.646 9.94 111.318 9.46C112.014 8.956 112.878 8.56 113.91 8.272C114.942 7.984 116.142 7.84 117.51 7.84C120.174 7.84 122.106 8.392 123.306 9.496C124.506 10.6 125.106 12.16 125.106 14.176C125.106 14.44 125.07 14.92 124.998 15.616C124.95 16.288 124.878 17.008 124.782 17.776C124.71 18.52 124.638 19.228 124.566 19.9C124.518 20.572 124.494 21.04 124.494 21.304C124.494 21.904 124.602 22.336 124.818 22.6C125.034 22.84 125.274 23.008 125.538 23.104C125.826 23.2 126.078 23.272 126.294 23.32C126.51 23.368 126.618 23.488 126.618 23.68C126.618 24.208 126.546 24.748 126.402 25.3C126.258 25.852 126.018 26.356 125.682 26.812C125.37 27.268 124.926 27.64 124.35 27.928C123.798 28.216 123.114 28.36 122.298 28.36C121.146 28.36 120.282 28.084 119.706 27.532C119.13 26.98 118.746 26.212 118.554 25.228C117.978 26.068 117.222 26.8 116.286 27.424C115.374 28.048 114.174 28.36 112.686 28.36C111.966 28.36 111.282 28.276 110.634 28.108C110.01 27.94 109.458 27.664 108.978 27.28C108.522 26.896 108.15 26.404 107.862 25.804C107.598 25.18 107.466 24.436 107.466 23.572ZM118.662 19.468C118.038 19.468 117.426 19.516 116.826 19.612C116.226 19.708 115.686 19.864 115.206 20.08C114.75 20.272 114.378 20.536 114.09 20.872C113.802 21.208 113.658 21.616 113.658 22.096C113.658 22.648 113.826 23.032 114.162 23.248C114.522 23.464 114.906 23.572 115.314 23.572C115.698 23.572 116.082 23.488 116.466 23.32C116.85 23.152 117.186 22.9 117.474 22.564C117.786 22.204 118.05 21.772 118.266 21.268C118.482 20.764 118.614 20.164 118.662 19.468ZM140.603 23.752C140.003 24.832 139.271 25.636 138.407 26.164C137.543 26.668 136.463 26.92 135.167 26.92C134.183 26.92 133.283 26.764 132.467 26.452C131.651 26.14 130.955 25.648 130.379 24.976C129.803 24.304 129.347 23.464 129.011 22.456C128.699 21.424 128.543 20.2 128.543 18.784C128.543 17.632 128.663 16.42 128.903 15.148C129.143 13.852 129.575 12.664 130.199 11.584C130.847 10.504 131.723 9.616 132.827 8.92C133.931 8.2 135.347 7.84 137.075 7.84C137.795 7.84 138.407 7.924 138.911 8.092C139.439 8.236 139.883 8.44 140.243 8.704C140.627 8.968 140.927 9.28 141.143 9.64C141.383 10 141.563 10.384 141.683 10.792C141.683 10.816 141.683 10.732 141.683 10.54C141.707 10.324 141.731 10.084 141.755 9.82C141.779 9.556 141.791 9.304 141.791 9.064C141.815 8.8 141.827 8.632 141.827 8.56C141.851 8.32 142.007 8.2 142.295 8.2H143.951C145.199 8.2 146.099 8.464 146.651 8.992C147.227 9.496 147.515 10.468 147.515 11.908C147.515 12.1 147.503 12.544 147.479 13.24C147.455 13.912 147.407 14.728 147.335 15.688C147.287 16.648 147.215 17.716 147.119 18.892C147.023 20.044 146.915 21.208 146.795 22.384C146.675 23.56 146.543 24.688 146.399 25.768C146.255 26.848 146.099 27.796 145.931 28.612C145.763 29.428 145.475 30.22 145.067 30.988C144.659 31.756 144.083 32.44 143.339 33.04C142.595 33.64 141.635 34.12 140.459 34.48C139.307 34.84 137.891 35.02 136.211 35.02C134.939 35.02 133.823 34.9 132.863 34.66C131.927 34.42 131.147 34.096 130.523 33.688C129.899 33.304 129.419 32.86 129.083 32.356C128.771 31.852 128.615 31.348 128.615 30.844C128.615 30.388 128.711 29.992 128.903 29.656C129.095 29.32 129.347 29.044 129.659 28.828C129.971 28.612 130.307 28.444 130.667 28.324C131.051 28.228 131.411 28.18 131.747 28.18C132.155 28.18 132.455 28.3 132.647 28.54C132.839 28.78 133.055 29.044 133.295 29.332C133.535 29.644 133.871 29.92 134.303 30.16C134.735 30.4 135.407 30.52 136.319 30.52C137.903 30.52 139.007 29.932 139.631 28.756C140.279 27.604 140.603 25.936 140.603 23.752ZM137.579 22.132C138.443 22.132 139.115 21.928 139.595 21.52C140.099 21.112 140.483 20.62 140.747 20.044C141.011 19.468 141.179 18.868 141.251 18.244C141.323 17.62 141.359 17.08 141.359 16.624C141.359 15.184 141.131 14.164 140.675 13.564C140.243 12.94 139.583 12.628 138.695 12.628C137.807 12.628 137.111 12.868 136.607 13.348C136.103 13.828 135.719 14.404 135.455 15.076C135.215 15.724 135.059 16.384 134.987 17.056C134.915 17.704 134.879 18.208 134.879 18.568C134.879 19.768 135.083 20.668 135.491 21.268C135.899 21.844 136.595 22.132 137.579 22.132ZM159.015 28.36C157.959 28.36 156.903 28.228 155.847 27.964C154.815 27.7 153.879 27.244 153.039 26.596C152.223 25.948 151.551 25.084 151.023 24.004C150.495 22.924 150.231 21.568 150.231 19.936C150.231 19.336 150.279 18.616 150.375 17.776C150.471 16.936 150.651 16.072 150.915 15.184C151.203 14.296 151.587 13.42 152.067 12.556C152.571 11.668 153.219 10.876 154.011 10.18C154.803 9.484 155.763 8.92 156.891 8.488C158.019 8.056 159.363 7.84 160.923 7.84C162.171 7.84 163.227 7.984 164.091 8.272C164.955 8.56 165.651 8.956 166.179 9.46C166.707 9.94 167.091 10.504 167.331 11.152C167.571 11.8 167.691 12.496 167.691 13.24C167.691 14.344 167.463 15.28 167.007 16.048C166.575 16.816 165.999 17.464 165.279 17.992C164.583 18.496 163.803 18.892 162.939 19.18C162.075 19.468 161.223 19.696 160.383 19.864C159.543 20.008 158.763 20.104 158.043 20.152C157.347 20.176 156.807 20.188 156.423 20.188C156.423 20.644 156.483 21.1 156.603 21.556C156.747 21.988 156.951 22.372 157.215 22.708C157.479 23.044 157.827 23.32 158.259 23.536C158.691 23.752 159.219 23.86 159.843 23.86C160.467 23.86 160.947 23.764 161.283 23.572C161.643 23.356 161.931 23.128 162.147 22.888C162.363 22.624 162.543 22.396 162.687 22.204C162.855 21.988 163.071 21.88 163.335 21.88C163.455 21.88 163.659 21.916 163.947 21.988C164.259 22.036 164.571 22.156 164.883 22.348C165.195 22.54 165.471 22.804 165.711 23.14C165.951 23.476 166.071 23.908 166.071 24.436C166.071 25.132 165.855 25.732 165.423 26.236C164.991 26.74 164.427 27.148 163.731 27.46C163.059 27.772 162.303 28 161.463 28.144C160.623 28.288 159.807 28.36 159.015 28.36ZM159.699 12.628C159.171 12.628 158.715 12.784 158.331 13.096C157.971 13.384 157.659 13.756 157.395 14.212C157.155 14.668 156.963 15.172 156.819 15.724C156.699 16.276 156.603 16.804 156.531 17.308C158.019 17.284 159.219 17.032 160.131 16.552C161.067 16.072 161.535 15.388 161.535 14.5C161.535 14.02 161.379 13.588 161.067 13.204C160.779 12.82 160.323 12.628 159.699 12.628Z" fill="white"/>
</svg>
